<svg xmlns="http://www.w3.org/2000/svg" width="266.667" height="266.667" version="1.0" viewBox="0 0 200 200"><path fill="#660708" d="M13 13.5.5 26l27.3 27.3C42.7 68.2 55 80.8 55 81.3c0 .4-10.3.7-23 .7H9v36H118.7V9H82l-.2 23-.3 23-27.7-27C38.6 13.1 26 1 25.8 1c-.2 0-5.9 5.6-12.8 12.5z"/><path fill="#ba181b" d="M124 55.3v17.4l6.5 1.8c17.1 4.6 30.7 19.9 33.4 37.5 3.8 24.4-13.3 47.7-38.3 52.1-14 2.4-29.3-2.6-39.7-13-6.1-6.2-11.4-15.8-12.5-22.7l-.6-4.4H37.2l.5 4.2c2.3 20.1 13.7 40.7 29.2 53.1 15.2 12.1 31.7 17.8 51.6 17.9 24.1 0 42.8-8.1 59.6-26 8.8-9.3 15.7-21.9 19-34.7 2.9-11 2.9-28.8 0-39.8-8.4-32-35.1-55.6-68.3-60.2l-4.8-.6v17.4z"/></svg>